<svg width="900" height="260" viewBox="0 0 900 260" fill="none" xmlns="http://www.w3.org/2000/svg">
  <defs>
    <linearGradient id="grad1" x1="0" y1="0" x2="1" y2="1">
      <stop offset="0%" stop-color="#0B1F6D"/>
      <stop offset="55%" stop-color="#1677FF"/>
      <stop offset="100%" stop-color="#18D39E"/>
    </linearGradient>
  </defs>

  <!-- Icon -->
  <g transform="translate(40,20)">
    <rect x="80" y="95" width="28" height="55" rx="10" fill="#20C997"/>
    <rect x="120" y="75" width="28" height="75" rx="10" fill="#18C7A1"/>
    <rect x="160" y="50" width="28" height="100" rx="10" fill="#10B9B5"/>
    <path d="M215 20V145C215 185 186 215 146 215C106 215 75 186 75 145H115C115 164 127 176 146 176C165 176 177 164 177 145V20H215Z" fill="url(#grad1)"/>
    <path d="M230 45H285L265 70L285 95H230V45Z" fill="#11C5A8"/>
  </g>

  <!-- Text -->
  <text x="330" y="165" font-family="Inter, Arial, sans-serif" font-size="92" font-weight="700" fill="url(#grad1)">jobsignal</text>
</svg>